<?xml version="1.0" encoding="UTF-8"?>
<svg width="423.23px" height="273px" enable-background="new 0 0 423.227 273" version="1.1" viewBox="0 0 423.227 273" xmlns="http://www.w3.org/2000/svg" xmlns:xlink="http://www.w3.org/1999/xlink">
 <linearGradient id="v" x1="180.3" x2="180.3" y1="273" y2="141.33" gradientUnits="userSpaceOnUse">
  <stop stop-color="#FFCC85" offset="0"/>
  <stop stop-color="#FFF5B8" offset="1"/>
 </linearGradient>
 <path d="m7.94 141.64c-5.162 9.445-7.94 19.478-7.94 29.876 0 56.051 80.725 101.49 180.3 101.49s180.3-45.438 180.3-101.49c0-10.509-2.838-20.645-8.106-30.179l-344.56 0.303z" fill="url(#v)"/>
 <defs>
  <path id="w" d="m352.5 142.2c0 7.545-77.132 13.661-172.28 13.661s-172.28-6.116-172.28-13.661h0.848v-130.2l406-12v143l-62.288-0.802z"/>
 </defs>
 <clipPath id="a">
  <use xlink:href="#w"/>
 </clipPath>
 <g clip-path="url(#a)">
  <path d="m279.98 159.12s-39.852 35.938-76.844 3.268c-36.994-32.669-22.479-37.504-23.272-52.267-0.79-14.763 0.351-25.078 10.622-32.278 10.269-7.197 35.62-29.027 71.681-18.214 36.062 10.812 58.542 48.318 45.333 68.483-13.207 20.165-27.52 31.008-27.52 31.008z" fill="#C1272D"/>
  <path d="m179.87 110.12c-0.79-14.763 0.351-25.078 10.622-32.278 10.269-7.197 35.62-29.027 71.681-18.214 36.062 10.812 58.542 48.318 45.333 68.483-13.207 20.165-32.642-136.67-127.64-17.991z" fill="#A3271F"/>
  <path d="m184.36 108.13s-4.932 9.607-0.111 11.45c4.822 1.842 8.022-6.204 8.022-6.204l-2.838-7.758-5.073 2.512z" fill="#603813"/>
  <path d="m184.25 119.58l-2.374 3.171s-1.203 11.404 14.43 25.164c0 0-8.503-14-7.687-28.148l-4.369-0.187z" fill="#fff"/>
  <path d="m272.94 129.36s-32.171-30.829-60.372-26.032c-28.202 4.798 76.415-33.831 60.372 26.032z" fill="#A3271F"/>
 </g>
 <g clip-path="url(#a)">
  <defs>
   <path id="x" d="m402.79 45.898s-46.566-3.127-55.136 13.318c0 0-1.845 6.044 0.267 10.753 2.111 4.71-3.728 12.854-3.728 12.854s-15.05 5.375-29.066 5.432c-14.018 0.057-34.796 11.279-45.294 19.186-10.499 7.908-38.049 14.183-55.281 16.378-17.234 2.196-18.16 54.317-18.16 54.317l63.07 16.238s72.396-32.389 92.35-58.997c19.954-26.607 9.007-25.627 11.993-39.286 2.985-13.658 0.692-14.542 3.169-17.484 2.475-2.943 37.391-0.408 40.486-16.361 3.097-15.954 6.243-16.561-4.67-16.348z"/>
  </defs>
  <clipPath id="b">
   <use xlink:href="#x"/>
  </clipPath>
  <path d="m402.79 45.898s-46.566-3.127-55.136 13.318c0 0-1.845 6.044 0.267 10.753 2.111 4.71-3.728 12.854-3.728 12.854s-15.05 5.375-29.066 5.432c-14.018 0.057-34.796 11.279-45.294 19.186-10.499 7.908-38.049 14.183-55.281 16.378-17.234 2.196-18.16 54.317-18.16 54.317l63.07 16.238s72.396-32.389 92.35-58.997c19.954-26.607 9.007-25.627 11.993-39.286 2.985-13.658 0.692-14.542 3.169-17.484 2.475-2.943 37.391-0.408 40.486-16.361 3.097-15.954 6.243-16.561-4.67-16.348z" clip-path="url(#b)" fill="#E8DB21"/>
  <path d="m180.71 180.41s128.73-21.863 173.77-84.792l6.387-19.623s2.328 0.118 6.104 2.611c3.773 2.492 10.52 24.315 10.52 24.315s-1.578 16.797-6.602 24.215c-5.026 7.418-48.406 68.128-56.393 72.327-7.985 4.198-91.751 13.763-91.751 13.763l-42.036-32.816z" clip-path="url(#b)" fill="#E8BA21"/>
  <path d="m382.11 38.714s-14.153 19.229-8.863 22.567c5.292 3.335 11.286 8.243 11.286 8.243l24.044 1.985s15.194-8.436 14.638-13.067c-0.559-4.632-1.421-19.251-8.41-19.606-6.991-0.354-32.695-0.122-32.695-0.122z" clip-path="url(#b)" fill="#995705"/>
  <path d="m183.8 164.46s134.82-35.364 152.6-65.15c0 0-24.714 44.778-157.1 77.964" clip-path="url(#b)" fill="#995705"/>
  <path d="m366.97 78.607l-4.284 8.222-3.133 16.719s3.93 15.543-10.67 27.846c-14.601 12.302-44.798 41.459-107.43 65.137-62.638 23.677 130.5-26.377 132.94-28.554 2.438-2.179-1.343-69.882-1.343-69.882l-6.077-19.488z" clip-path="url(#b)" fill="#995705"/>
 </g>
 <g clip-path="url(#a)">
  <path d="m149.16 137.18s-53.594-2.716-56.697-51.973c-3.105-49.256 10.584-42.425 20.451-53.433 9.87-11.007 17.965-17.502 30.32-15.343 12.352 2.161 45.717 4.619 63.602 37.746 17.887 33.127 7.301 75.555-16.293 80.496-23.593 4.942-41.383 2.507-41.383 2.507z" fill="#C1272D"/>
  <path d="m112.91 31.776c9.87-11.007 17.965-17.502 30.32-15.343 12.352 2.161 45.717 4.619 63.602 37.746 17.887 33.127 7.301 75.555-16.293 80.496-23.593 4.943 73.446-119.79-77.629-102.9z" fill="#A3271F"/>
  <path d="m117.5 33.543s-10.277 3.315-8.167 8.025c2.112 4.71 10.061 1.277 10.061 1.277l3.472-7.496-5.366-1.806z" fill="#603813"/>
  <path d="m109.33 41.568l-3.921 0.568s-8.907 7.221-7.563 28.003c0 0 3.871-15.915 14.444-25.353l-2.96-3.218z" fill="#fff"/>
  <path d="m165.19 111.14s-0.99-44.546-24.34-61.073 77.985 30.035 24.34 61.073z" fill="#A3271F"/>
 </g>
 <g clip-path="url(#a)">
  <path d="m41.142 86.764s14.926-5.121 17.789-5.854c2.863-0.732 12.119-4.767 12.119-4.767l-2.81 23.98" fill="none" stroke="#8C6239" stroke-width="2"/>
  <path d="m98.479 100.4l-10.217-13.152-15.944-11.687 9.388 37.043 42.395 11.006s-2.457-15.087-8.785-25.332-11.543-12.189-11.543-12.189l-29.701-9.104" fill="none" stroke="#8C6239" stroke-linejoin="round" stroke-width="2"/>
  <radialGradient id="y" cx="85.758" cy="-10.35" r="17.614" gradientTransform="matrix(1.1646 -.058 .0641 1.148 11.716 158.82)" gradientUnits="userSpaceOnUse">
   <stop stop-color="#E0FF66" offset="0"/>
   <stop stop-color="#52B812" offset="1"/>
  </radialGradient>
  <path d="m128.98 141.07c0.69 12.364-6.831 22.79-16.802 23.287-9.969 0.497-18.611-9.124-19.3-21.487-0.69-12.364 6.831-22.79 16.802-23.287 9.969-0.497 18.61 9.124 19.3 21.487z" fill="url(#y)"/>
  <radialGradient id="z" cx="68.026" cy="21.268" r="17.614" gradientTransform="matrix(1.1663 -.0094 .0147 1.1495 17.15 94.35)" gradientUnits="userSpaceOnUse">
   <stop stop-color="#E0FF66" offset="0"/>
   <stop stop-color="#52B812" offset="1"/>
  </radialGradient>
  <path d="m114.88 118.01c0.158 12.379-7.807 22.479-17.793 22.56-9.982 0.079-18.203-9.891-18.361-22.27s7.807-22.48 17.791-22.56c9.982-0.08 18.205 9.89 18.363 22.27z" fill="url(#z)"/>
  <radialGradient id="aa" cx="192.07" cy="433.44" r="17.614" gradientTransform="matrix(1.0428 .5195 -.5225 1.0254 112.61 -406.72)" gradientUnits="userSpaceOnUse">
   <stop stop-color="#E0FF66" offset="0"/>
   <stop stop-color="#52B812" offset="1"/>
  </radialGradient>
  <path d="m102.59 145.57c-5.627 11.043-17.425 16.391-26.353 11.943-8.926-4.447-11.601-17.004-5.974-28.047 5.626-11.044 17.423-16.392 26.352-11.944 8.926 4.447 11.603 17.005 5.975 28.048z" fill="url(#aa)"/>
  <radialGradient id="ab" cx="368.21" cy="673.55" r="17.613" gradientTransform="matrix(.7936 .8459 -.8548 .7784 344.38 -716.41)" gradientUnits="userSpaceOnUse">
   <stop stop-color="#E0FF66" offset="0"/>
   <stop stop-color="#52B812" offset="1"/>
  </radialGradient>
  <path d="m73.134 132.46c-9.205 8.383-22.175 9.309-28.969 2.066-6.791-7.241-4.836-19.906 4.368-28.288 9.206-8.383 22.176-9.308 28.968-2.066 6.795 7.24 4.84 19.906-4.367 28.288z" fill="url(#ab)"/>
  <radialGradient id="p" cx="121.84" cy="-234.53" r="17.614" gradientTransform="matrix(1.1227 -.3065 .316 1.1079 62.964 432.83)" gradientUnits="userSpaceOnUse">
   <stop stop-color="#E0FF66" offset="0"/>
   <stop stop-color="#52B812" offset="1"/>
  </radialGradient>
  <path d="m143.04 130.9c3.403 11.931-1.629 23.731-11.242 26.355-9.611 2.622-20.16-4.924-23.563-16.855s1.629-23.731 11.242-26.354c9.61-2.624 20.161 4.921 23.563 16.854z" fill="url(#p)"/>
  <radialGradient id="q" cx="81.382" cy="247.34" r="17.614" gradientTransform="matrix(1.1402 .2473 -.2458 1.1226 22.559 -141.81)" gradientUnits="userSpaceOnUse">
   <stop stop-color="#E0FF66" offset="0"/>
   <stop stop-color="#52B812" offset="1"/>
  </radialGradient>
  <path d="m72.227 159.81c-2.647 12.09-12.706 20.175-22.468 18.059-9.76-2.118-15.524-13.634-12.877-25.724 2.646-12.089 12.705-20.175 22.465-18.058 9.761 2.115 15.527 13.632 12.88 25.723z" fill="url(#q)"/>
  <radialGradient id="r" cx="509.02" cy="735.08" r="17.614" gradientTransform="matrix(.6928 .9278 -.9383 .6787 454.2 -802.32)" gradientUnits="userSpaceOnUse">
   <stop stop-color="#E0FF66" offset="0"/>
   <stop stop-color="#52B812" offset="1"/>
  </radialGradient>
  <path d="m127.86 183.23c-10.105 7.308-23.105 6.795-29.037-1.148-5.93-7.942-2.545-20.305 7.561-27.614 10.104-7.31 23.104-6.796 29.035 1.146s2.547 20.306-7.559 27.616z" fill="url(#r)"/>
  <radialGradient id="s" cx="105.85" cy="253.75" r="17.614" gradientTransform="matrix(1.1402 .2473 -.2458 1.1226 22.559 -141.81)" gradientUnits="userSpaceOnUse">
   <stop stop-color="#E0FF66" offset="0"/>
   <stop stop-color="#52B812" offset="1"/>
  </radialGradient>
  <path d="m98.556 173.05c-2.648 12.089-12.707 20.175-22.469 18.058-9.759-2.118-15.523-13.634-12.876-25.724 2.646-12.089 12.704-20.175 22.464-18.058 9.762 2.117 15.527 13.633 12.881 25.724z" fill="url(#s)"/>
  <radialGradient id="t" cx="59.465" cy="208.97" r="17.614" gradientTransform="matrix(1.1402 .2473 -.2458 1.1226 22.559 -141.81)" gradientUnits="userSpaceOnUse">
   <stop stop-color="#E0FF66" offset="0"/>
   <stop stop-color="#52B812" offset="1"/>
  </radialGradient>
  <path d="m56.669 111.31c-2.647 12.09-12.705 20.176-22.468 18.059-9.759-2.118-15.524-13.634-12.876-25.724 2.646-12.089 12.703-20.175 22.464-18.058 9.762 2.115 15.528 13.632 12.88 25.723z" fill="url(#t)"/>
  <radialGradient id="u" cx="58.821" cy="234.73" r="17.614" gradientTransform="matrix(1.1402 .2473 -.2458 1.1226 22.559 -141.81)" gradientUnits="userSpaceOnUse">
   <stop stop-color="#E0FF66" offset="0"/>
   <stop stop-color="#52B812" offset="1"/>
  </radialGradient>
  <path d="m49.603 140.08c-2.648 12.09-12.706 20.175-22.469 18.058-9.758-2.118-15.523-13.634-12.876-25.724 2.646-12.089 12.704-20.175 22.464-18.058 9.761 2.116 15.528 13.633 12.881 25.724z" fill="url(#u)"/>
  <path d="m71.05 76.144s0.992-11.859-14.764-16.933" fill="none" stroke="#8C6239" stroke-linejoin="round" stroke-width="5"/>
  <path d="m35.788 87.75s-8 5.25-9.5 10c0 0 8-9.25 11.75-8.25l-2.25-1.75z" fill="#fff"/>
  <path d="m27.538 118s-3.75 1.25-9.5 9.5l10.5-7.25-1-2.25z" fill="#fff"/>
  <path d="m94.538 98.5s-3.75 1-6.75 3 6.75-1 6.75-1v-2z" fill="#fff"/>
  <path d="m120.04 116.25s-6.25 1.25-8.25 8 8.25-6.25 8.25-6.25v-1.75z" fill="#fff"/>
  <polygon points="66.538 101.5 63.038 101.75 67.288 104.75" fill="#fff"/>
  <polyline points="86.788 118.75 88.788 121.75 91.038 118.25 88.038 118" fill="#fff"/>
 </g>
 <g clip-path="url(#a)">
  <path d="m269.97 144.04c-1.983 41.634-38.193 73.632-80.875 71.469-42.684-2.162-75.674-37.667-73.691-79.301s38.193-73.632 80.875-71.469c42.683 2.162 75.675 37.667 73.691 79.301z" fill="#F7931E"/>
  <path d="m189.09 215.51c42.682 2.163 78.892-29.835 80.875-71.469 1.984-41.634-31.008-77.139-73.691-79.301 0 0 62.53 19.28 59.761 77.445-2.772 58.166-66.945 73.325-66.945 73.325z" fill="#E67D12"/>
  <path d="m190.42 81.321c-44.384 0.053-65.503 51.151-65.503 51.151 11.205-55.437 58.914-59.925 58.914-59.925l6.589 8.774z" fill="#fff"/>
  <path d="m214.67 139.14c-2.743 1.451-3.198 2.916-1.961 5.583-2.698-0.185-3.705 0.833-4.044 3.331-2.02-1.12-3.372-0.759-4.877 0.95-1.335-1.852-2.647-2.348-4.761-1.438-0.103-2.521-1.007-3.635-3.709-3.724 1.484-2.531 1.171-4.035-1.421-5.755 2.742-1.451 3.198-2.916 1.961-5.583 2.698 0.185 3.705-0.833 4.044-3.332 2.02 1.12 3.37 0.759 4.875-0.95 1.338 1.853 2.647 2.349 4.765 1.438 0.099 2.521 1.005 3.635 3.705 3.724-1.484 2.531-1.17 4.035 1.423 5.756z" fill="#8C6239"/>
  <path d="m210.76 139.51c-0.174 3.646-2.964 6.466-6.231 6.3-3.271-0.166-5.778-3.254-5.604-6.9s2.963-6.467 6.231-6.302c3.269 0.167 5.777 3.256 5.604 6.902z" fill="#42210B"/>
 </g>
 <path d="m10.788 143.67s81.333 9.667 143.33 9 109.67 0.667 197.33-7l-2 8.333s-45.666 37.667-47 38.667-172-0.333-173.33-0.333-99.667-25-100-26-17.333-7.334-17.666-12.334-0.667-10.333-0.667-10.333z" clip-path="url(#a)" opacity=".14"/>
</svg>
